<?xml version="1.0" encoding="utf-8"?>
<!-- Generator: Adobe Illustrator 16.0.5, SVG Export Plug-In . SVG Version: 6.00 Build 0)  -->
<!DOCTYPE svg PUBLIC "-//W3C//DTD SVG 1.1//EN" "http://www.w3.org/Graphics/SVG/1.1/DTD/svg11.dtd">
<svg version="1.1" id="Layer_1" xmlns="http://www.w3.org/2000/svg" xmlns:xlink="http://www.w3.org/1999/xlink" x="0px" y="0px"
	 width="562px" height="562px" viewBox="0 0 562 562" enable-background="new 0 0 562 562" xml:space="preserve">
<g>
	<path fill="#32C1EF" d="M74.99,472.078c0.081,0.087,0.164,0.171,0.245,0.257l-0.225-0.255
		C75.004,472.079,74.998,472.078,74.99,472.078z"/>
	<path fill="#B7B7B7" d="M553.864,348.312C559.167,326.744,562,304.204,562,281C562,125.808,436.192,0,281,0
		C125.809,0,0,125.808,0,281c0,29.475,4.549,57.886,12.965,84.58c12.619-24.954,39.37-42.171,70.329-42.171
		c22.424,0,42.58,9.082,56.818,23.538c16.607-12.597,39.415-20.386,64.604-20.386c28.308,0,53.602,9.831,70.461,25.267l-0.03-0.061
		c-27.771-86.28-11.146-189.523-4.11-212.644l-17.854,12.296c-2.877,1.985-6.591,1.894-9.714,0.166l-33.51-8.36
		c-4.981-1.241-7.89-6.779-6.497-12.371c0.275-1.102,0.732-2.089,1.268-3.009c-1.725-1.153-3.161-2.425-4.198-3.845
		c-6.636-9.034,15.132-38.953,25.877-43.294c10.491-4.239,57.44,15.507,72.902,34.982v-0.006L553.864,348.312z"/>
	<path fill="#B7B7B7" d="M281,562c131.987,0,242.701-91.007,272.864-213.688L299.311,115.684v0.006
		c2.006,2.527,3.489,5.05,4.286,7.515c17.635,77.184,85.822,178.363,68.993,268.004c0.234,1.702,0.396,3.427,0.396,5.19
		c0,2.343-0.258,4.624-0.667,6.861c2.679,3.219,4.346,7.556,4.333,12.354c0,9.896-6.988,17.917-15.614,17.917
		c-3.113,0-6.001-1.074-8.438-2.882c-0.214,0.126-0.432,0.253-0.653,0.374c-12.972,14.464-71.984,33.305-137.49,36.241
		c-3.204,0.26-6.448,0.404-9.744,0.404c-0.522,0-1.023-0.053-1.542-0.062c-1.984,0.03-3.97,0.062-5.965,0.062
		c-24.658,0-50.487-2.09-74.501-5.438c-11.578,6.487-25.016,10.271-39.41,10.271c-2.798,0-5.561-0.147-8.283-0.422l0.225,0.255
		C126.541,527.485,199.732,562,281,562z"/>
	<path opacity="0.2" fill="#636464" d="M281,562c131.987,0,242.701-91.007,272.864-213.688L299.311,115.684v0.006
		c2.006,2.527,3.489,5.05,4.286,7.515c17.635,77.184,85.822,178.363,68.993,268.004c0.234,1.702,0.396,3.427,0.396,5.19
		c0,2.343-0.258,4.624-0.667,6.861c2.679,3.219,4.346,7.556,4.333,12.354c0,9.896-6.988,17.917-15.614,17.917
		c-3.113,0-6.001-1.074-8.438-2.882c-0.214,0.126-0.432,0.253-0.653,0.374c-12.972,14.464-71.984,33.305-137.49,36.241
		c-3.204,0.26-6.448,0.404-9.744,0.404c-0.522,0-1.023-0.053-1.542-0.062c-1.984,0.03-3.97,0.062-5.965,0.062
		c-24.658,0-50.487-2.09-74.501-5.438c-11.578,6.487-25.016,10.271-39.41,10.271c-2.798,0-5.561-0.147-8.283-0.422l0.225,0.255
		C126.541,527.485,199.732,562,281,562z"/>
</g>
</svg>
